<svg id="Layer_1" data-name="Layer 1" xmlns="http://www.w3.org/2000/svg" viewBox="0 0 48 48"><defs><style>.cls-1{fill:#ea0029;}.cls-2{fill:#fff;}.cls-3{fill:#101820;}</style></defs><rect class="cls-1" width="48" height="48" rx="4.5"/><path class="cls-2" d="M35.57,29.25l1.21-2.45a3.5,3.5,0,0,1,1.59-1.59L40.82,24l-2.45-1.21a3.5,3.5,0,0,1-1.59-1.59l-1.21-2.45L34.35,21.2a3.5,3.5,0,0,1-1.58,1.58L30.32,24l2.45,1.21a3.48,3.48,0,0,1,1.58,1.59Z"/><path class="cls-3" d="M24,31a7,7,0,1,1,5-11.95l4.95-5a14,14,0,1,0,0,19.8L28.92,29A7,7,0,0,1,24,31Z"/></svg>