<svg id="Layer_1" data-name="Layer 1" xmlns="http://www.w3.org/2000/svg" viewBox="0 0 224 48"><defs><style>.cls-1{fill:#ea0029;}.cls-2{fill:#fff;}.cls-3{fill:#101820;}</style></defs><rect class="cls-1" width="48" height="48" rx="4.5"/><path class="cls-2" d="M35.36,29.14l1.19-2.4a3.42,3.42,0,0,1,1.55-1.55L40.5,24l-2.4-1.19a3.42,3.42,0,0,1-1.55-1.55l-1.19-2.4-1.19,2.4a3.42,3.42,0,0,1-1.55,1.55L30.22,24l2.4,1.19a3.42,3.42,0,0,1,1.55,1.55Z"/><path class="cls-3" d="M24,30.86a6.86,6.86,0,1,1,4.85-11.71L33.7,14.3a13.71,13.71,0,1,0,0,19.4l-4.85-4.85A6.85,6.85,0,0,1,24,30.86Z"/><path class="cls-2" d="M150.32,17.14V24a3.43,3.43,0,0,1-6.86,0V17.14H140V24a6.86,6.86,0,1,0,13.71,0V17.14Z"/><path class="cls-2" d="M67.57,26.42,70,28.85a6.86,6.86,0,1,1,0-9.7l-2.42,2.43a3.43,3.43,0,1,0,0,4.84Z"/><path class="cls-2" d="M85.85,24A6.86,6.86,0,1,1,79,17.14,6.86,6.86,0,0,1,85.85,24Zm-3.43,0A3.43,3.43,0,1,0,79,27.43,3.44,3.44,0,0,0,82.42,24Z"/><path class="cls-2" d="M105.75,17.14a6.81,6.81,0,0,0-5.14,2.33,6.85,6.85,0,0,0-12,4.53v6.86H92V24a3.43,3.43,0,1,1,6.85,0v6.86h3.43V24a3.43,3.43,0,0,1,6.86,0v6.86h3.43V24A6.86,6.86,0,0,0,105.75,17.14Z"/><path class="cls-1" d="M134.3,25.37a1.73,1.73,0,0,0-.78-.78l-1.2-.59,1.2-.6a1.71,1.71,0,0,0,.78-.77l.59-1.2.6,1.2a1.69,1.69,0,0,0,.78.78l1.2.59-1.2.59a1.69,1.69,0,0,0-.78.78l-.6,1.2Z"/><path class="cls-1" d="M158.89,26.57l.6-1.2a1.71,1.71,0,0,1,.77-.78l1.2-.59-1.2-.59a1.71,1.71,0,0,1-.77-.78l-.6-1.2-.59,1.2a1.66,1.66,0,0,1-.78.77l-1.2.6,1.2.59a1.73,1.73,0,0,1,.78.78Z"/><path class="cls-2" d="M190.68,17.14V24a3.43,3.43,0,0,1-6.86,0V17.14H180.4V24a6.86,6.86,0,1,0,13.71,0V17.14Z"/><rect class="cls-2" x="204.4" y="10.29" width="3.43" height="20.57"/><rect class="cls-2" x="197.54" y="17.14" width="3.43" height="13.71"/><path class="cls-1" d="M199.25,15.71l.6-1.2a1.69,1.69,0,0,1,.77-.77l1.2-.6-1.2-.59a1.71,1.71,0,0,1-.77-.78l-.6-1.2-.59,1.2a1.73,1.73,0,0,1-.78.78l-1.2.59,1.2.6a1.71,1.71,0,0,1,.78.77Z"/><path class="cls-2" d="M224.11,10.29V24a6.86,6.86,0,1,1-3.43-5.94V10.29ZM220.68,24a3.43,3.43,0,1,0-3.43,3.43A3.43,3.43,0,0,0,220.68,24Z"/><path class="cls-2" d="M129.7,24.83a6.86,6.86,0,0,1-10.24,5.11v7.77H116V24.24a7,7,0,0,1,6.5-7.09A6.86,6.86,0,0,1,129.7,24.83ZM126.32,24a3.43,3.43,0,1,0-3.43,3.43A3.42,3.42,0,0,0,126.32,24Z"/><path class="cls-2" d="M177.83,24a6.86,6.86,0,0,1-13.72,0V10.29h3.43v7.77A6.86,6.86,0,0,1,177.83,24Zm-3.43,0A3.43,3.43,0,1,0,171,27.43,3.43,3.43,0,0,0,174.4,24Z"/></svg>